<svg xmlns="http://www.w3.org/2000/svg" viewBox="0 0 512 240" width="512" height="240">
  <rect width="512" height="240" fill="#000000"/>
  <rect x="176" y="0" width="8" height="8" fill="#00d7ff"/>
<rect x="184" y="0" width="8" height="8" fill="#00d7ff"/>
<rect x="192" y="0" width="8" height="8" fill="#005fff"/>
<rect x="200" y="0" width="8" height="8" fill="#005fff"/>
<rect x="256" y="0" width="8" height="8" fill="#00d7ff"/>
<rect x="264" y="0" width="8" height="8" fill="#00d7ff"/>
<rect x="272" y="0" width="8" height="8" fill="#005fff"/>
<rect x="280" y="0" width="8" height="8" fill="#005fff"/>
<rect x="168" y="8" width="8" height="8" fill="#00d7ff"/>
<rect x="176" y="8" width="8" height="8" fill="#00d7ff"/>
<rect x="184" y="8" width="8" height="8" fill="#00d7ff"/>
<rect x="192" y="8" width="8" height="8" fill="#00d7ff"/>
<rect x="200" y="8" width="8" height="8" fill="#00d7ff"/>
<rect x="208" y="8" width="8" height="8" fill="#005fff"/>
<rect x="248" y="8" width="8" height="8" fill="#005fff"/>
<rect x="256" y="8" width="8" height="8" fill="#00d7ff"/>
<rect x="264" y="8" width="8" height="8" fill="#00d7ff"/>
<rect x="272" y="8" width="8" height="8" fill="#00d7ff"/>
<rect x="280" y="8" width="8" height="8" fill="#00d7ff"/>
<rect x="288" y="8" width="8" height="8" fill="#00d7ff"/>
<rect x="168" y="16" width="8" height="8" fill="#5f5f5f"/>
<rect x="176" y="16" width="8" height="8" fill="#005fff"/>
<rect x="184" y="16" width="8" height="8" fill="#005faf"/>
<rect x="192" y="16" width="8" height="8" fill="#5f5f5f"/>
<rect x="200" y="16" width="8" height="8" fill="#5f5f5f"/>
<rect x="208" y="16" width="8" height="8" fill="#5f5f5f"/>
<rect x="216" y="16" width="8" height="8" fill="#005fff"/>
<rect x="232" y="16" width="8" height="8" fill="#005faf"/>
<rect x="240" y="16" width="8" height="8" fill="#00d7ff"/>
<rect x="248" y="16" width="8" height="8" fill="#005faf"/>
<rect x="256" y="16" width="8" height="8" fill="#5f5f5f"/>
<rect x="264" y="16" width="8" height="8" fill="#5f5f5f"/>
<rect x="272" y="16" width="8" height="8" fill="#005faf"/>
<rect x="280" y="16" width="8" height="8" fill="#005faf"/>
<rect x="288" y="16" width="8" height="8" fill="#5f5f5f"/>
<rect x="168" y="24" width="8" height="8" fill="#5f5f5f"/>
<rect x="176" y="24" width="8" height="8" fill="#005fff"/>
<rect x="184" y="24" width="8" height="8" fill="#005faf"/>
<rect x="192" y="24" width="8" height="8" fill="#5f5f5f"/>
<rect x="200" y="24" width="8" height="8" fill="#5f5f5f"/>
<rect x="208" y="24" width="8" height="8" fill="#5f5f5f"/>
<rect x="216" y="24" width="8" height="8" fill="#005fff"/>
<rect x="232" y="24" width="8" height="8" fill="#005faf"/>
<rect x="240" y="24" width="8" height="8" fill="#00d7ff"/>
<rect x="248" y="24" width="8" height="8" fill="#005faf"/>
<rect x="256" y="24" width="8" height="8" fill="#5f5f5f"/>
<rect x="264" y="24" width="8" height="8" fill="#5f5f5f"/>
<rect x="272" y="24" width="8" height="8" fill="#005faf"/>
<rect x="280" y="24" width="8" height="8" fill="#005faf"/>
<rect x="288" y="24" width="8" height="8" fill="#5f5f5f"/>
<rect x="224" y="32" width="8" height="8" fill="#005faf"/>
<rect x="232" y="32" width="8" height="8" fill="#005faf"/>
<rect x="240" y="32" width="8" height="8" fill="#005faf"/>
<rect x="192" y="40" width="8" height="8" fill="#5f5f87"/>
<rect x="200" y="40" width="8" height="8" fill="#005faf"/>
<rect x="224" y="40" width="8" height="8" fill="#005fff"/>
<rect x="232" y="40" width="8" height="8" fill="#005faf"/>
<rect x="240" y="40" width="8" height="8" fill="#005faf"/>
<rect x="256" y="40" width="8" height="8" fill="#005faf"/>
<rect x="176" y="48" width="8" height="8" fill="#5f5f5f"/>
<rect x="184" y="48" width="8" height="8" fill="#5f5f5f"/>
<rect x="192" y="48" width="8" height="8" fill="#5f5f5f"/>
<rect x="200" y="48" width="8" height="8" fill="#5f5f5f"/>
<rect x="208" y="48" width="8" height="8" fill="#5f5f5f"/>
<rect x="216" y="48" width="8" height="8" fill="#5f5f5f"/>
<rect x="224" y="48" width="8" height="8" fill="#5f5f5f"/>
<rect x="232" y="48" width="8" height="8" fill="#5f5f5f"/>
<rect x="240" y="48" width="8" height="8" fill="#5f5f5f"/>
<rect x="248" y="48" width="8" height="8" fill="#5f5f5f"/>
<rect x="256" y="48" width="8" height="8" fill="#5f5f5f"/>
<rect x="160" y="56" width="8" height="8" fill="#005faf"/>
<rect x="168" y="56" width="8" height="8" fill="#005faf"/>
<rect x="176" y="56" width="8" height="8" fill="#005fff"/>
<rect x="184" y="56" width="8" height="8" fill="#005faf"/>
<rect x="192" y="56" width="8" height="8" fill="#005faf"/>
<rect x="200" y="56" width="8" height="8" fill="#005faf"/>
<rect x="208" y="56" width="8" height="8" fill="#005faf"/>
<rect x="216" y="56" width="8" height="8" fill="#005faf"/>
<rect x="224" y="56" width="8" height="8" fill="#005faf"/>
<rect x="232" y="56" width="8" height="8" fill="#005faf"/>
<rect x="240" y="56" width="8" height="8" fill="#005faf"/>
<rect x="248" y="56" width="8" height="8" fill="#005faf"/>
<rect x="256" y="56" width="8" height="8" fill="#005faf"/>
<rect x="264" y="56" width="8" height="8" fill="#5f5f5f"/>
<rect x="272" y="56" width="8" height="8" fill="#5f5f5f"/>
<rect x="280" y="56" width="8" height="8" fill="#5f5f5f"/>
<rect x="384" y="56" width="8" height="8" fill="#5f5f5f"/>
<rect x="392" y="56" width="8" height="8" fill="#5f5f5f"/>
<rect x="496" y="56" width="8" height="8" fill="#5f5f5f"/>
<rect x="504" y="56" width="8" height="8" fill="#5f5f5f"/>
<rect x="160" y="64" width="8" height="8" fill="#005faf"/>
<rect x="168" y="64" width="8" height="8" fill="#005faf"/>
<rect x="176" y="64" width="8" height="8" fill="#005fff"/>
<rect x="184" y="64" width="8" height="8" fill="#005faf"/>
<rect x="192" y="64" width="8" height="8" fill="#005faf"/>
<rect x="200" y="64" width="8" height="8" fill="#005faf"/>
<rect x="208" y="64" width="8" height="8" fill="#005faf"/>
<rect x="216" y="64" width="8" height="8" fill="#005faf"/>
<rect x="224" y="64" width="8" height="8" fill="#005faf"/>
<rect x="232" y="64" width="8" height="8" fill="#005faf"/>
<rect x="240" y="64" width="8" height="8" fill="#005faf"/>
<rect x="248" y="64" width="8" height="8" fill="#005faf"/>
<rect x="256" y="64" width="8" height="8" fill="#005faf"/>
<rect x="264" y="64" width="8" height="8" fill="#5f5f5f"/>
<rect x="272" y="64" width="8" height="8" fill="#5f5f5f"/>
<rect x="280" y="64" width="8" height="8" fill="#5f5f5f"/>
<rect x="384" y="64" width="8" height="8" fill="#5f5f5f"/>
<rect x="392" y="64" width="8" height="8" fill="#5f5f5f"/>
<rect x="496" y="64" width="8" height="8" fill="#5f5f5f"/>
<rect x="504" y="64" width="8" height="8" fill="#5f5f5f"/>
<rect x="128" y="72" width="8" height="8" fill="#5f5f5f"/>
<rect x="136" y="72" width="8" height="8" fill="#5f5f87"/>
<rect x="144" y="72" width="8" height="8" fill="#005faf"/>
<rect x="152" y="72" width="8" height="8" fill="#005faf"/>
<rect x="160" y="72" width="8" height="8" fill="#005faf"/>
<rect x="168" y="72" width="8" height="8" fill="#00d7ff"/>
<rect x="176" y="72" width="8" height="8" fill="#5f5f87"/>
<rect x="184" y="72" width="8" height="8" fill="#5f5f87"/>
<rect x="192" y="72" width="8" height="8" fill="#5f5f87"/>
<rect x="200" y="72" width="8" height="8" fill="#5f5f87"/>
<rect x="208" y="72" width="8" height="8" fill="#5f5f87"/>
<rect x="216" y="72" width="8" height="8" fill="#5f5f87"/>
<rect x="224" y="72" width="8" height="8" fill="#5f5f87"/>
<rect x="232" y="72" width="8" height="8" fill="#5f5f87"/>
<rect x="240" y="72" width="8" height="8" fill="#5f5f87"/>
<rect x="248" y="72" width="8" height="8" fill="#5f5f87"/>
<rect x="256" y="72" width="8" height="8" fill="#5f5f87"/>
<rect x="264" y="72" width="8" height="8" fill="#005faf"/>
<rect x="272" y="72" width="8" height="8" fill="#005faf"/>
<rect x="280" y="72" width="8" height="8" fill="#005faf"/>
<rect x="288" y="72" width="8" height="8" fill="#5f5f5f"/>
<rect x="296" y="72" width="8" height="8" fill="#5f5f5f"/>
<rect x="384" y="72" width="8" height="8" fill="#5f5f5f"/>
<rect x="400" y="72" width="8" height="8" fill="#5f5f5f"/>
<rect x="408" y="72" width="8" height="8" fill="#5f5f5f"/>
<rect x="416" y="72" width="8" height="8" fill="#5f5f5f"/>
<rect x="424" y="72" width="8" height="8" fill="#5f5f5f"/>
<rect x="432" y="72" width="8" height="8" fill="#5f5f5f"/>
<rect x="464" y="72" width="8" height="8" fill="#5f5f5f"/>
<rect x="472" y="72" width="8" height="8" fill="#5f5f5f"/>
<rect x="480" y="72" width="8" height="8" fill="#5f5f5f"/>
<rect x="488" y="72" width="8" height="8" fill="#5f5f5f"/>
<rect x="496" y="72" width="8" height="8" fill="#5f5f87"/>
<rect x="504" y="72" width="8" height="8" fill="#005faf"/>
<rect x="112" y="80" width="8" height="8" fill="#5f5f5f"/>
<rect x="120" y="80" width="8" height="8" fill="#005faf"/>
<rect x="128" y="80" width="8" height="8" fill="#005faf"/>
<rect x="136" y="80" width="8" height="8" fill="#005fff"/>
<rect x="144" y="80" width="8" height="8" fill="#5f5f87"/>
<rect x="152" y="80" width="8" height="8" fill="#5f5f87"/>
<rect x="160" y="80" width="8" height="8" fill="#5f5f87"/>
<rect x="168" y="80" width="8" height="8" fill="#5f5f87"/>
<rect x="176" y="80" width="8" height="8" fill="#5f5f87"/>
<rect x="184" y="80" width="8" height="8" fill="#5f5f87"/>
<rect x="192" y="80" width="8" height="8" fill="#5f5f87"/>
<rect x="200" y="80" width="8" height="8" fill="#5f5f87"/>
<rect x="208" y="80" width="8" height="8" fill="#5f5f87"/>
<rect x="216" y="80" width="8" height="8" fill="#5f5f87"/>
<rect x="224" y="80" width="8" height="8" fill="#5f5f87"/>
<rect x="232" y="80" width="8" height="8" fill="#5f5f87"/>
<rect x="240" y="80" width="8" height="8" fill="#5f5f87"/>
<rect x="248" y="80" width="8" height="8" fill="#5f5f87"/>
<rect x="256" y="80" width="8" height="8" fill="#5f5f87"/>
<rect x="264" y="80" width="8" height="8" fill="#5f5f87"/>
<rect x="272" y="80" width="8" height="8" fill="#5f5f87"/>
<rect x="280" y="80" width="8" height="8" fill="#5f5f87"/>
<rect x="288" y="80" width="8" height="8" fill="#5f5f87"/>
<rect x="296" y="80" width="8" height="8" fill="#5f5f87"/>
<rect x="304" y="80" width="8" height="8" fill="#005faf"/>
<rect x="312" y="80" width="8" height="8" fill="#5f5f87"/>
<rect x="320" y="80" width="8" height="8" fill="#5f5f5f"/>
<rect x="384" y="80" width="8" height="8" fill="#5f5f5f"/>
<rect x="400" y="80" width="8" height="8" fill="#5f5f87"/>
<rect x="408" y="80" width="8" height="8" fill="#5f5f87"/>
<rect x="416" y="80" width="8" height="8" fill="#5f5f87"/>
<rect x="424" y="80" width="8" height="8" fill="#5f5f87"/>
<rect x="432" y="80" width="8" height="8" fill="#5f5f87"/>
<rect x="440" y="80" width="8" height="8" fill="#005faf"/>
<rect x="456" y="80" width="8" height="8" fill="#005faf"/>
<rect x="464" y="80" width="8" height="8" fill="#5f5f87"/>
<rect x="472" y="80" width="8" height="8" fill="#5f5f87"/>
<rect x="480" y="80" width="8" height="8" fill="#5f5f87"/>
<rect x="488" y="80" width="8" height="8" fill="#5f5f87"/>
<rect x="496" y="80" width="8" height="8" fill="#5f5f5f"/>
<rect x="504" y="80" width="8" height="8" fill="#5f5f5f"/>
<rect x="104" y="88" width="8" height="8" fill="#5f5f5f"/>
<rect x="112" y="88" width="8" height="8" fill="#005faf"/>
<rect x="120" y="88" width="8" height="8" fill="#5f5f87"/>
<rect x="128" y="88" width="8" height="8" fill="#5f5f87"/>
<rect x="136" y="88" width="8" height="8" fill="#5f5f87"/>
<rect x="144" y="88" width="8" height="8" fill="#5f5f87"/>
<rect x="152" y="88" width="8" height="8" fill="#5f5f87"/>
<rect x="160" y="88" width="8" height="8" fill="#5f5f87"/>
<rect x="168" y="88" width="8" height="8" fill="#5f5f87"/>
<rect x="176" y="88" width="8" height="8" fill="#5f5f87"/>
<rect x="184" y="88" width="8" height="8" fill="#5f5f87"/>
<rect x="192" y="88" width="8" height="8" fill="#5f5f87"/>
<rect x="200" y="88" width="8" height="8" fill="#5f5f87"/>
<rect x="208" y="88" width="8" height="8" fill="#5f5f87"/>
<rect x="216" y="88" width="8" height="8" fill="#5f5f87"/>
<rect x="224" y="88" width="8" height="8" fill="#5f5f87"/>
<rect x="232" y="88" width="8" height="8" fill="#5f5f87"/>
<rect x="240" y="88" width="8" height="8" fill="#5f5f87"/>
<rect x="248" y="88" width="8" height="8" fill="#5f5f87"/>
<rect x="256" y="88" width="8" height="8" fill="#5f5f87"/>
<rect x="264" y="88" width="8" height="8" fill="#5f5f87"/>
<rect x="272" y="88" width="8" height="8" fill="#5f5f87"/>
<rect x="280" y="88" width="8" height="8" fill="#5f5f87"/>
<rect x="288" y="88" width="8" height="8" fill="#5f5f87"/>
<rect x="296" y="88" width="8" height="8" fill="#5f5f87"/>
<rect x="304" y="88" width="8" height="8" fill="#5f5f87"/>
<rect x="312" y="88" width="8" height="8" fill="#005faf"/>
<rect x="320" y="88" width="8" height="8" fill="#005faf"/>
<rect x="328" y="88" width="8" height="8" fill="#5f5f5f"/>
<rect x="336" y="88" width="8" height="8" fill="#5f5f5f"/>
<rect x="400" y="88" width="8" height="8" fill="#5f5f87"/>
<rect x="408" y="88" width="8" height="8" fill="#5f5f87"/>
<rect x="416" y="88" width="8" height="8" fill="#5f5f87"/>
<rect x="424" y="88" width="8" height="8" fill="#5f5f87"/>
<rect x="432" y="88" width="8" height="8" fill="#5f5f87"/>
<rect x="440" y="88" width="8" height="8" fill="#5f5f87"/>
<rect x="448" y="88" width="8" height="8" fill="#5f5f87"/>
<rect x="456" y="88" width="8" height="8" fill="#5f5f87"/>
<rect x="464" y="88" width="8" height="8" fill="#5f5f87"/>
<rect x="472" y="88" width="8" height="8" fill="#5f5f87"/>
<rect x="480" y="88" width="8" height="8" fill="#5f5f87"/>
<rect x="488" y="88" width="8" height="8" fill="#5f5f87"/>
<rect x="496" y="88" width="8" height="8" fill="#5f5f5f"/>
<rect x="504" y="88" width="8" height="8" fill="#5f5f5f"/>
<rect x="104" y="96" width="8" height="8" fill="#5f5f5f"/>
<rect x="112" y="96" width="8" height="8" fill="#005faf"/>
<rect x="120" y="96" width="8" height="8" fill="#5f5f87"/>
<rect x="128" y="96" width="8" height="8" fill="#5f5f87"/>
<rect x="136" y="96" width="8" height="8" fill="#5f5f87"/>
<rect x="144" y="96" width="8" height="8" fill="#5f5f87"/>
<rect x="152" y="96" width="8" height="8" fill="#5f5f87"/>
<rect x="160" y="96" width="8" height="8" fill="#5f5f87"/>
<rect x="168" y="96" width="8" height="8" fill="#5f5f87"/>
<rect x="176" y="96" width="8" height="8" fill="#5f5f87"/>
<rect x="184" y="96" width="8" height="8" fill="#5f5f87"/>
<rect x="192" y="96" width="8" height="8" fill="#5f5f87"/>
<rect x="200" y="96" width="8" height="8" fill="#5f5f87"/>
<rect x="208" y="96" width="8" height="8" fill="#5f5f87"/>
<rect x="216" y="96" width="8" height="8" fill="#5f5f87"/>
<rect x="224" y="96" width="8" height="8" fill="#5f5f87"/>
<rect x="232" y="96" width="8" height="8" fill="#5f5f87"/>
<rect x="240" y="96" width="8" height="8" fill="#5f5f87"/>
<rect x="248" y="96" width="8" height="8" fill="#5f5f87"/>
<rect x="256" y="96" width="8" height="8" fill="#5f5f87"/>
<rect x="264" y="96" width="8" height="8" fill="#5f5f87"/>
<rect x="272" y="96" width="8" height="8" fill="#5f5f87"/>
<rect x="280" y="96" width="8" height="8" fill="#5f5f87"/>
<rect x="288" y="96" width="8" height="8" fill="#5f5f87"/>
<rect x="296" y="96" width="8" height="8" fill="#5f5f87"/>
<rect x="304" y="96" width="8" height="8" fill="#5f5f87"/>
<rect x="312" y="96" width="8" height="8" fill="#5f5f87"/>
<rect x="320" y="96" width="8" height="8" fill="#5f5f87"/>
<rect x="328" y="96" width="8" height="8" fill="#005faf"/>
<rect x="336" y="96" width="8" height="8" fill="#005faf"/>
<rect x="344" y="96" width="8" height="8" fill="#5f5f5f"/>
<rect x="400" y="96" width="8" height="8" fill="#5f5f5f"/>
<rect x="408" y="96" width="8" height="8" fill="#5f5f5f"/>
<rect x="416" y="96" width="8" height="8" fill="#5f5f5f"/>
<rect x="424" y="96" width="8" height="8" fill="#5f5f87"/>
<rect x="432" y="96" width="8" height="8" fill="#5f5f87"/>
<rect x="440" y="96" width="8" height="8" fill="#5f5f87"/>
<rect x="448" y="96" width="8" height="8" fill="#5f5f87"/>
<rect x="456" y="96" width="8" height="8" fill="#5f5f87"/>
<rect x="464" y="96" width="8" height="8" fill="#5f5f87"/>
<rect x="472" y="96" width="8" height="8" fill="#5f5f87"/>
<rect x="480" y="96" width="8" height="8" fill="#5f5f5f"/>
<rect x="488" y="96" width="8" height="8" fill="#5f5f5f"/>
<rect x="104" y="104" width="8" height="8" fill="#5f5f5f"/>
<rect x="112" y="104" width="8" height="8" fill="#005faf"/>
<rect x="120" y="104" width="8" height="8" fill="#5f5f87"/>
<rect x="128" y="104" width="8" height="8" fill="#5f5f87"/>
<rect x="136" y="104" width="8" height="8" fill="#5f5f87"/>
<rect x="144" y="104" width="8" height="8" fill="#5f5f87"/>
<rect x="152" y="104" width="8" height="8" fill="#5f5f87"/>
<rect x="160" y="104" width="8" height="8" fill="#5f5f87"/>
<rect x="168" y="104" width="8" height="8" fill="#5f5f87"/>
<rect x="176" y="104" width="8" height="8" fill="#5f5f87"/>
<rect x="184" y="104" width="8" height="8" fill="#5f5f87"/>
<rect x="192" y="104" width="8" height="8" fill="#5f5f87"/>
<rect x="200" y="104" width="8" height="8" fill="#5f5f87"/>
<rect x="208" y="104" width="8" height="8" fill="#5f5f87"/>
<rect x="216" y="104" width="8" height="8" fill="#5f5f87"/>
<rect x="224" y="104" width="8" height="8" fill="#5f5f87"/>
<rect x="232" y="104" width="8" height="8" fill="#5f5f87"/>
<rect x="240" y="104" width="8" height="8" fill="#5f5f87"/>
<rect x="248" y="104" width="8" height="8" fill="#5f5f87"/>
<rect x="256" y="104" width="8" height="8" fill="#5f5f87"/>
<rect x="264" y="104" width="8" height="8" fill="#5f5f87"/>
<rect x="272" y="104" width="8" height="8" fill="#5f5f87"/>
<rect x="280" y="104" width="8" height="8" fill="#5f5f87"/>
<rect x="288" y="104" width="8" height="8" fill="#5f5f87"/>
<rect x="296" y="104" width="8" height="8" fill="#5f5f87"/>
<rect x="304" y="104" width="8" height="8" fill="#5f5f87"/>
<rect x="312" y="104" width="8" height="8" fill="#5f5f87"/>
<rect x="320" y="104" width="8" height="8" fill="#5f5f87"/>
<rect x="328" y="104" width="8" height="8" fill="#005faf"/>
<rect x="336" y="104" width="8" height="8" fill="#005faf"/>
<rect x="344" y="104" width="8" height="8" fill="#5f5f5f"/>
<rect x="400" y="104" width="8" height="8" fill="#5f5f5f"/>
<rect x="408" y="104" width="8" height="8" fill="#5f5f5f"/>
<rect x="416" y="104" width="8" height="8" fill="#5f5f5f"/>
<rect x="424" y="104" width="8" height="8" fill="#5f5f87"/>
<rect x="432" y="104" width="8" height="8" fill="#5f5f87"/>
<rect x="440" y="104" width="8" height="8" fill="#5f5f87"/>
<rect x="448" y="104" width="8" height="8" fill="#5f5f87"/>
<rect x="456" y="104" width="8" height="8" fill="#5f5f87"/>
<rect x="464" y="104" width="8" height="8" fill="#5f5f87"/>
<rect x="472" y="104" width="8" height="8" fill="#5f5f87"/>
<rect x="480" y="104" width="8" height="8" fill="#5f5f5f"/>
<rect x="488" y="104" width="8" height="8" fill="#5f5f5f"/>
<rect x="88" y="112" width="8" height="8" fill="#5f5f5f"/>
<rect x="96" y="112" width="8" height="8" fill="#5f5f5f"/>
<rect x="104" y="112" width="8" height="8" fill="#005faf"/>
<rect x="112" y="112" width="8" height="8" fill="#5f5f87"/>
<rect x="120" y="112" width="8" height="8" fill="#5f5f87"/>
<rect x="128" y="112" width="8" height="8" fill="#5f5f87"/>
<rect x="136" y="112" width="8" height="8" fill="#5f5f87"/>
<rect x="144" y="112" width="8" height="8" fill="#5f5f87"/>
<rect x="152" y="112" width="8" height="8" fill="#5f5f87"/>
<rect x="160" y="112" width="8" height="8" fill="#5f5f87"/>
<rect x="168" y="112" width="8" height="8" fill="#5f5f87"/>
<rect x="176" y="112" width="8" height="8" fill="#5f5f87"/>
<rect x="184" y="112" width="8" height="8" fill="#5f5f87"/>
<rect x="192" y="112" width="8" height="8" fill="#5f5f87"/>
<rect x="200" y="112" width="8" height="8" fill="#5f5f87"/>
<rect x="208" y="112" width="8" height="8" fill="#5f5f87"/>
<rect x="216" y="112" width="8" height="8" fill="#5f5f87"/>
<rect x="224" y="112" width="8" height="8" fill="#5f5f87"/>
<rect x="232" y="112" width="8" height="8" fill="#5f5f87"/>
<rect x="240" y="112" width="8" height="8" fill="#5f5f87"/>
<rect x="248" y="112" width="8" height="8" fill="#5f5f87"/>
<rect x="256" y="112" width="8" height="8" fill="#5f5f87"/>
<rect x="264" y="112" width="8" height="8" fill="#5f5f87"/>
<rect x="272" y="112" width="8" height="8" fill="#5f5f87"/>
<rect x="280" y="112" width="8" height="8" fill="#5f5f87"/>
<rect x="288" y="112" width="8" height="8" fill="#5f5f87"/>
<rect x="296" y="112" width="8" height="8" fill="#5f5f87"/>
<rect x="304" y="112" width="8" height="8" fill="#5f5f87"/>
<rect x="312" y="112" width="8" height="8" fill="#5f5f87"/>
<rect x="320" y="112" width="8" height="8" fill="#5f5f87"/>
<rect x="328" y="112" width="8" height="8" fill="#5f5f87"/>
<rect x="336" y="112" width="8" height="8" fill="#5f5f87"/>
<rect x="344" y="112" width="8" height="8" fill="#5f5f87"/>
<rect x="352" y="112" width="8" height="8" fill="#5f5f5f"/>
<rect x="440" y="112" width="8" height="8" fill="#5f5f87"/>
<rect x="448" y="112" width="8" height="8" fill="#5f5f87"/>
<rect x="456" y="112" width="8" height="8" fill="#5f5f5f"/>
<rect x="80" y="120" width="8" height="8" fill="#5f5f5f"/>
<rect x="88" y="120" width="8" height="8" fill="#005faf"/>
<rect x="96" y="120" width="8" height="8" fill="#005faf"/>
<rect x="104" y="120" width="8" height="8" fill="#5f5f87"/>
<rect x="112" y="120" width="8" height="8" fill="#5f5f87"/>
<rect x="120" y="120" width="8" height="8" fill="#5f5f87"/>
<rect x="128" y="120" width="8" height="8" fill="#5f5f87"/>
<rect x="136" y="120" width="8" height="8" fill="#5f5f87"/>
<rect x="144" y="120" width="8" height="8" fill="#5f5f87"/>
<rect x="152" y="120" width="8" height="8" fill="#5f5f87"/>
<rect x="160" y="120" width="8" height="8" fill="#5f5f87"/>
<rect x="168" y="120" width="8" height="8" fill="#5f5f87"/>
<rect x="176" y="120" width="8" height="8" fill="#5f5f87"/>
<rect x="184" y="120" width="8" height="8" fill="#5f5f87"/>
<rect x="192" y="120" width="8" height="8" fill="#5f5f87"/>
<rect x="200" y="120" width="8" height="8" fill="#5f5f87"/>
<rect x="208" y="120" width="8" height="8" fill="#5f5f87"/>
<rect x="216" y="120" width="8" height="8" fill="#5f5f5f"/>
<rect x="224" y="120" width="8" height="8" fill="#5f5f5f"/>
<rect x="232" y="120" width="8" height="8" fill="#5f5f5f"/>
<rect x="240" y="120" width="8" height="8" fill="#5f5f87"/>
<rect x="248" y="120" width="8" height="8" fill="#5f5f87"/>
<rect x="256" y="120" width="8" height="8" fill="#5f5f87"/>
<rect x="264" y="120" width="8" height="8" fill="#5f5f87"/>
<rect x="272" y="120" width="8" height="8" fill="#5f5f87"/>
<rect x="280" y="120" width="8" height="8" fill="#5f5f87"/>
<rect x="288" y="120" width="8" height="8" fill="#5f5f87"/>
<rect x="296" y="120" width="8" height="8" fill="#5f5f87"/>
<rect x="304" y="120" width="8" height="8" fill="#5f5f87"/>
<rect x="312" y="120" width="8" height="8" fill="#5f5f87"/>
<rect x="320" y="120" width="8" height="8" fill="#5f5f87"/>
<rect x="328" y="120" width="8" height="8" fill="#5f5f87"/>
<rect x="336" y="120" width="8" height="8" fill="#5f5f87"/>
<rect x="344" y="120" width="8" height="8" fill="#5f5f87"/>
<rect x="352" y="120" width="8" height="8" fill="#5f5f87"/>
<rect x="360" y="120" width="8" height="8" fill="#5f5f5f"/>
<rect x="368" y="120" width="8" height="8" fill="#5f5f5f"/>
<rect x="440" y="120" width="8" height="8" fill="#5f5f87"/>
<rect x="448" y="120" width="8" height="8" fill="#5f5f5f"/>
<rect x="456" y="120" width="8" height="8" fill="#5f5f5f"/>
<rect x="80" y="128" width="8" height="8" fill="#5f5f5f"/>
<rect x="88" y="128" width="8" height="8" fill="#005faf"/>
<rect x="96" y="128" width="8" height="8" fill="#005faf"/>
<rect x="104" y="128" width="8" height="8" fill="#5f5f87"/>
<rect x="112" y="128" width="8" height="8" fill="#5f5f87"/>
<rect x="120" y="128" width="8" height="8" fill="#5f5f87"/>
<rect x="128" y="128" width="8" height="8" fill="#5f5f87"/>
<rect x="136" y="128" width="8" height="8" fill="#5f5f87"/>
<rect x="144" y="128" width="8" height="8" fill="#5f5f87"/>
<rect x="152" y="128" width="8" height="8" fill="#5f5f87"/>
<rect x="160" y="128" width="8" height="8" fill="#5f5f87"/>
<rect x="168" y="128" width="8" height="8" fill="#5f5f87"/>
<rect x="176" y="128" width="8" height="8" fill="#5f5f87"/>
<rect x="184" y="128" width="8" height="8" fill="#5f5f87"/>
<rect x="192" y="128" width="8" height="8" fill="#5f5f87"/>
<rect x="200" y="128" width="8" height="8" fill="#5f5f87"/>
<rect x="208" y="128" width="8" height="8" fill="#5f5f5f"/>
<rect x="216" y="128" width="8" height="8" fill="#00d7ff"/>
<rect x="248" y="128" width="8" height="8" fill="#5f5f87"/>
<rect x="256" y="128" width="8" height="8" fill="#5f5f87"/>
<rect x="264" y="128" width="8" height="8" fill="#5f5f87"/>
<rect x="272" y="128" width="8" height="8" fill="#5f5f87"/>
<rect x="280" y="128" width="8" height="8" fill="#5f5f87"/>
<rect x="288" y="128" width="8" height="8" fill="#5f5f87"/>
<rect x="296" y="128" width="8" height="8" fill="#5f5f87"/>
<rect x="304" y="128" width="8" height="8" fill="#5f5f87"/>
<rect x="312" y="128" width="8" height="8" fill="#5f5f87"/>
<rect x="320" y="128" width="8" height="8" fill="#5f5f87"/>
<rect x="328" y="128" width="8" height="8" fill="#5f5f87"/>
<rect x="336" y="128" width="8" height="8" fill="#5f5f87"/>
<rect x="344" y="128" width="8" height="8" fill="#5f5f87"/>
<rect x="352" y="128" width="8" height="8" fill="#5f5f87"/>
<rect x="360" y="128" width="8" height="8" fill="#5f5f87"/>
<rect x="368" y="128" width="8" height="8" fill="#5f5f5f"/>
<rect x="376" y="128" width="8" height="8" fill="#5f5f5f"/>
<rect x="384" y="128" width="8" height="8" fill="#5f5f5f"/>
<rect x="392" y="128" width="8" height="8" fill="#5f5f5f"/>
<rect x="424" y="128" width="8" height="8" fill="#5f5f5f"/>
<rect x="432" y="128" width="8" height="8" fill="#5f5f5f"/>
<rect x="440" y="128" width="8" height="8" fill="#5f5f87"/>
<rect x="448" y="128" width="8" height="8" fill="#5f5f5f"/>
<rect x="456" y="128" width="8" height="8" fill="#5f5f5f"/>
<rect x="80" y="136" width="8" height="8" fill="#5f5f5f"/>
<rect x="88" y="136" width="8" height="8" fill="#5f5f5f"/>
<rect x="96" y="136" width="8" height="8" fill="#5f5f5f"/>
<rect x="104" y="136" width="8" height="8" fill="#5f5f87"/>
<rect x="112" y="136" width="8" height="8" fill="#5f5f87"/>
<rect x="120" y="136" width="8" height="8" fill="#5f5f87"/>
<rect x="128" y="136" width="8" height="8" fill="#5f5f87"/>
<rect x="136" y="136" width="8" height="8" fill="#5f5f87"/>
<rect x="144" y="136" width="8" height="8" fill="#5f5f87"/>
<rect x="152" y="136" width="8" height="8" fill="#5f5f87"/>
<rect x="160" y="136" width="8" height="8" fill="#5f5f87"/>
<rect x="168" y="136" width="8" height="8" fill="#5f5f5f"/>
<rect x="176" y="136" width="8" height="8" fill="#5f5f5f"/>
<rect x="184" y="136" width="8" height="8" fill="#5f5f5f"/>
<rect x="192" y="136" width="8" height="8" fill="#5f5f5f"/>
<rect x="200" y="136" width="8" height="8" fill="#5f5f87"/>
<rect x="208" y="136" width="8" height="8" fill="#5f5f5f"/>
<rect x="248" y="136" width="8" height="8" fill="#5f5f87"/>
<rect x="256" y="136" width="8" height="8" fill="#5f5f87"/>
<rect x="264" y="136" width="8" height="8" fill="#5f5f87"/>
<rect x="272" y="136" width="8" height="8" fill="#5f5f5f"/>
<rect x="280" y="136" width="8" height="8" fill="#5f5f5f"/>
<rect x="288" y="136" width="8" height="8" fill="#5f5f5f"/>
<rect x="296" y="136" width="8" height="8" fill="#5f5f5f"/>
<rect x="304" y="136" width="8" height="8" fill="#5f5f5f"/>
<rect x="312" y="136" width="8" height="8" fill="#5f5f5f"/>
<rect x="320" y="136" width="8" height="8" fill="#5f5f5f"/>
<rect x="328" y="136" width="8" height="8" fill="#5f5f5f"/>
<rect x="336" y="136" width="8" height="8" fill="#5f5f5f"/>
<rect x="344" y="136" width="8" height="8" fill="#5f5f5f"/>
<rect x="352" y="136" width="8" height="8" fill="#5f5f5f"/>
<rect x="360" y="136" width="8" height="8" fill="#5f5f5f"/>
<rect x="368" y="136" width="8" height="8" fill="#5f5f5f"/>
<rect x="376" y="136" width="8" height="8" fill="#5f5f5f"/>
<rect x="384" y="136" width="8" height="8" fill="#5f5f5f"/>
<rect x="392" y="136" width="8" height="8" fill="#5f5f5f"/>
<rect x="400" y="136" width="8" height="8" fill="#5f5f5f"/>
<rect x="408" y="136" width="8" height="8" fill="#5f5f5f"/>
<rect x="416" y="136" width="8" height="8" fill="#5f5f87"/>
<rect x="424" y="136" width="8" height="8" fill="#5f5f87"/>
<rect x="432" y="136" width="8" height="8" fill="#5f5f87"/>
<rect x="440" y="136" width="8" height="8" fill="#5f5f5f"/>
<rect x="448" y="136" width="8" height="8" fill="#5f5f5f"/>
<rect x="80" y="144" width="8" height="8" fill="#5f5f5f"/>
<rect x="88" y="144" width="8" height="8" fill="#5f5f5f"/>
<rect x="96" y="144" width="8" height="8" fill="#5f5f5f"/>
<rect x="104" y="144" width="8" height="8" fill="#5f5f87"/>
<rect x="112" y="144" width="8" height="8" fill="#5f5f87"/>
<rect x="120" y="144" width="8" height="8" fill="#5f5f87"/>
<rect x="128" y="144" width="8" height="8" fill="#5f5f87"/>
<rect x="136" y="144" width="8" height="8" fill="#5f5f87"/>
<rect x="144" y="144" width="8" height="8" fill="#5f5f87"/>
<rect x="152" y="144" width="8" height="8" fill="#5f5f87"/>
<rect x="160" y="144" width="8" height="8" fill="#5f5f87"/>
<rect x="168" y="144" width="8" height="8" fill="#5f5f5f"/>
<rect x="176" y="144" width="8" height="8" fill="#5f5f5f"/>
<rect x="184" y="144" width="8" height="8" fill="#5f5f5f"/>
<rect x="192" y="144" width="8" height="8" fill="#5f5f5f"/>
<rect x="200" y="144" width="8" height="8" fill="#5f5f87"/>
<rect x="208" y="144" width="8" height="8" fill="#5f5f5f"/>
<rect x="248" y="144" width="8" height="8" fill="#5f5f87"/>
<rect x="256" y="144" width="8" height="8" fill="#5f5f87"/>
<rect x="264" y="144" width="8" height="8" fill="#5f5f87"/>
<rect x="272" y="144" width="8" height="8" fill="#5f5f5f"/>
<rect x="280" y="144" width="8" height="8" fill="#5f5f5f"/>
<rect x="288" y="144" width="8" height="8" fill="#5f5f5f"/>
<rect x="296" y="144" width="8" height="8" fill="#5f5f5f"/>
<rect x="304" y="144" width="8" height="8" fill="#5f5f5f"/>
<rect x="312" y="144" width="8" height="8" fill="#5f5f5f"/>
<rect x="320" y="144" width="8" height="8" fill="#5f5f5f"/>
<rect x="328" y="144" width="8" height="8" fill="#5f5f5f"/>
<rect x="336" y="144" width="8" height="8" fill="#5f5f5f"/>
<rect x="344" y="144" width="8" height="8" fill="#5f5f5f"/>
<rect x="352" y="144" width="8" height="8" fill="#5f5f5f"/>
<rect x="360" y="144" width="8" height="8" fill="#5f5f5f"/>
<rect x="368" y="144" width="8" height="8" fill="#5f5f5f"/>
<rect x="376" y="144" width="8" height="8" fill="#5f5f5f"/>
<rect x="384" y="144" width="8" height="8" fill="#5f5f5f"/>
<rect x="392" y="144" width="8" height="8" fill="#5f5f5f"/>
<rect x="400" y="144" width="8" height="8" fill="#5f5f5f"/>
<rect x="408" y="144" width="8" height="8" fill="#5f5f5f"/>
<rect x="416" y="144" width="8" height="8" fill="#5f5f87"/>
<rect x="424" y="144" width="8" height="8" fill="#5f5f87"/>
<rect x="432" y="144" width="8" height="8" fill="#5f5f87"/>
<rect x="440" y="144" width="8" height="8" fill="#5f5f5f"/>
<rect x="448" y="144" width="8" height="8" fill="#5f5f5f"/>
<rect x="88" y="152" width="8" height="8" fill="#005fff"/>
<rect x="96" y="152" width="8" height="8" fill="#005fff"/>
<rect x="104" y="152" width="8" height="8" fill="#5f5f5f"/>
<rect x="112" y="152" width="8" height="8" fill="#5f5f5f"/>
<rect x="120" y="152" width="8" height="8" fill="#5f5f5f"/>
<rect x="128" y="152" width="8" height="8" fill="#5f5f5f"/>
<rect x="136" y="152" width="8" height="8" fill="#5f5f5f"/>
<rect x="144" y="152" width="8" height="8" fill="#5f5f5f"/>
<rect x="152" y="152" width="8" height="8" fill="#5f5f5f"/>
<rect x="160" y="152" width="8" height="8" fill="#5f5f5f"/>
<rect x="168" y="152" width="8" height="8" fill="#00d7ff"/>
<rect x="176" y="152" width="8" height="8" fill="#00d7ff"/>
<rect x="184" y="152" width="8" height="8" fill="#00d7ff"/>
<rect x="192" y="152" width="8" height="8" fill="#005faf"/>
<rect x="200" y="152" width="8" height="8" fill="#5f5f5f"/>
<rect x="208" y="152" width="8" height="8" fill="#5f5f87"/>
<rect x="216" y="152" width="8" height="8" fill="#5f5f87"/>
<rect x="224" y="152" width="8" height="8" fill="#5f5f5f"/>
<rect x="232" y="152" width="8" height="8" fill="#5f5f5f"/>
<rect x="240" y="152" width="8" height="8" fill="#5f5f87"/>
<rect x="248" y="152" width="8" height="8" fill="#5f5f87"/>
<rect x="256" y="152" width="8" height="8" fill="#5f5f5f"/>
<rect x="264" y="152" width="8" height="8" fill="#5f5f5f"/>
<rect x="272" y="152" width="8" height="8" fill="#5f5f5f"/>
<rect x="280" y="152" width="8" height="8" fill="#5f5f5f"/>
<rect x="288" y="152" width="8" height="8" fill="#5f5f5f"/>
<rect x="296" y="152" width="8" height="8" fill="#5f5f5f"/>
<rect x="304" y="152" width="8" height="8" fill="#5f5f5f"/>
<rect x="312" y="152" width="8" height="8" fill="#5f5f5f"/>
<rect x="320" y="152" width="8" height="8" fill="#5f5f5f"/>
<rect x="328" y="152" width="8" height="8" fill="#5f5f5f"/>
<rect x="336" y="152" width="8" height="8" fill="#5f5f5f"/>
<rect x="344" y="152" width="8" height="8" fill="#5f5f5f"/>
<rect x="352" y="152" width="8" height="8" fill="#5f5f5f"/>
<rect x="360" y="152" width="8" height="8" fill="#5f5f5f"/>
<rect x="368" y="152" width="8" height="8" fill="#5f5f5f"/>
<rect x="376" y="152" width="8" height="8" fill="#5f5f5f"/>
<rect x="384" y="152" width="8" height="8" fill="#5f5f5f"/>
<rect x="392" y="152" width="8" height="8" fill="#5f5f5f"/>
<rect x="400" y="152" width="8" height="8" fill="#5f5f87"/>
<rect x="408" y="152" width="8" height="8" fill="#5f5f87"/>
<rect x="416" y="152" width="8" height="8" fill="#5f5f87"/>
<rect x="424" y="152" width="8" height="8" fill="#5f5f5f"/>
<rect x="432" y="152" width="8" height="8" fill="#5f5f87"/>
<rect x="440" y="152" width="8" height="8" fill="#5f5f5f"/>
<rect x="448" y="152" width="8" height="8" fill="#5f5f5f"/>
<rect x="88" y="160" width="8" height="8" fill="#5f5f5f"/>
<rect x="96" y="160" width="8" height="8" fill="#5f5f5f"/>
<rect x="104" y="160" width="8" height="8" fill="#00d7ff"/>
<rect x="112" y="160" width="8" height="8" fill="#00d7ff"/>
<rect x="120" y="160" width="8" height="8" fill="#00d7ff"/>
<rect x="128" y="160" width="8" height="8" fill="#00d7ff"/>
<rect x="136" y="160" width="8" height="8" fill="#00d7ff"/>
<rect x="144" y="160" width="8" height="8" fill="#00d7ff"/>
<rect x="152" y="160" width="8" height="8" fill="#00d7ff"/>
<rect x="160" y="160" width="8" height="8" fill="#00d7ff"/>
<rect x="168" y="160" width="8" height="8" fill="#00d7ff"/>
<rect x="176" y="160" width="8" height="8" fill="#00d7ff"/>
<rect x="184" y="160" width="8" height="8" fill="#00d7ff"/>
<rect x="192" y="160" width="8" height="8" fill="#00d7ff"/>
<rect x="200" y="160" width="8" height="8" fill="#00d7ff"/>
<rect x="208" y="160" width="8" height="8" fill="#5f5f5f"/>
<rect x="216" y="160" width="8" height="8" fill="#5f5f87"/>
<rect x="224" y="160" width="8" height="8" fill="#5f5f87"/>
<rect x="232" y="160" width="8" height="8" fill="#5f5f87"/>
<rect x="240" y="160" width="8" height="8" fill="#5f5f87"/>
<rect x="248" y="160" width="8" height="8" fill="#5f5f5f"/>
<rect x="256" y="160" width="8" height="8" fill="#5f5f5f"/>
<rect x="264" y="160" width="8" height="8" fill="#5f5f5f"/>
<rect x="272" y="160" width="8" height="8" fill="#5f5f5f"/>
<rect x="280" y="160" width="8" height="8" fill="#5f5f5f"/>
<rect x="288" y="160" width="8" height="8" fill="#5f5f5f"/>
<rect x="296" y="160" width="8" height="8" fill="#5f5f5f"/>
<rect x="304" y="160" width="8" height="8" fill="#5f5f5f"/>
<rect x="312" y="160" width="8" height="8" fill="#5f5f5f"/>
<rect x="320" y="160" width="8" height="8" fill="#5f5f5f"/>
<rect x="328" y="160" width="8" height="8" fill="#5f5f5f"/>
<rect x="336" y="160" width="8" height="8" fill="#5f5f5f"/>
<rect x="344" y="160" width="8" height="8" fill="#5f5f5f"/>
<rect x="352" y="160" width="8" height="8" fill="#5f5f5f"/>
<rect x="360" y="160" width="8" height="8" fill="#5f5f5f"/>
<rect x="368" y="160" width="8" height="8" fill="#5f5f5f"/>
<rect x="376" y="160" width="8" height="8" fill="#5f5f5f"/>
<rect x="384" y="160" width="8" height="8" fill="#5f5f87"/>
<rect x="392" y="160" width="8" height="8" fill="#5f5f87"/>
<rect x="400" y="160" width="8" height="8" fill="#5f5f87"/>
<rect x="408" y="160" width="8" height="8" fill="#5f5f87"/>
<rect x="416" y="160" width="8" height="8" fill="#5f5f5f"/>
<rect x="424" y="160" width="8" height="8" fill="#5f5f5f"/>
<rect x="432" y="160" width="8" height="8" fill="#5f5f5f"/>
<rect x="440" y="160" width="8" height="8" fill="#5f5f5f"/>
<rect x="104" y="168" width="8" height="8" fill="#5f5f5f"/>
<rect x="112" y="168" width="8" height="8" fill="#005fff"/>
<rect x="120" y="168" width="8" height="8" fill="#00d7ff"/>
<rect x="128" y="168" width="8" height="8" fill="#00d7ff"/>
<rect x="136" y="168" width="8" height="8" fill="#00d7ff"/>
<rect x="144" y="168" width="8" height="8" fill="#00d7ff"/>
<rect x="152" y="168" width="8" height="8" fill="#00d7ff"/>
<rect x="160" y="168" width="8" height="8" fill="#00d7ff"/>
<rect x="168" y="168" width="8" height="8" fill="#00d7ff"/>
<rect x="176" y="168" width="8" height="8" fill="#00d7ff"/>
<rect x="184" y="168" width="8" height="8" fill="#00d7ff"/>
<rect x="192" y="168" width="8" height="8" fill="#00d7ff"/>
<rect x="200" y="168" width="8" height="8" fill="#00d7ff"/>
<rect x="208" y="168" width="8" height="8" fill="#00d7ff"/>
<rect x="216" y="168" width="8" height="8" fill="#00d7ff"/>
<rect x="224" y="168" width="8" height="8" fill="#00d7ff"/>
<rect x="232" y="168" width="8" height="8" fill="#00d7ff"/>
<rect x="240" y="168" width="8" height="8" fill="#00d7ff"/>
<rect x="248" y="168" width="8" height="8" fill="#5f5f5f"/>
<rect x="256" y="168" width="8" height="8" fill="#5f5f5f"/>
<rect x="264" y="168" width="8" height="8" fill="#5f5f87"/>
<rect x="272" y="168" width="8" height="8" fill="#5f5f87"/>
<rect x="280" y="168" width="8" height="8" fill="#5f5f87"/>
<rect x="288" y="168" width="8" height="8" fill="#5f5f87"/>
<rect x="296" y="168" width="8" height="8" fill="#5f5f87"/>
<rect x="304" y="168" width="8" height="8" fill="#5f5f5f"/>
<rect x="312" y="168" width="8" height="8" fill="#5f5f5f"/>
<rect x="320" y="168" width="8" height="8" fill="#5f5f5f"/>
<rect x="328" y="168" width="8" height="8" fill="#5f5f5f"/>
<rect x="336" y="168" width="8" height="8" fill="#5f5f5f"/>
<rect x="344" y="168" width="8" height="8" fill="#5f5f5f"/>
<rect x="352" y="168" width="8" height="8" fill="#5f5f5f"/>
<rect x="360" y="168" width="8" height="8" fill="#5f5f5f"/>
<rect x="368" y="168" width="8" height="8" fill="#5f5f5f"/>
<rect x="376" y="168" width="8" height="8" fill="#5f5f5f"/>
<rect x="384" y="168" width="8" height="8" fill="#5f5f5f"/>
<rect x="392" y="168" width="8" height="8" fill="#5f5f5f"/>
<rect x="400" y="168" width="8" height="8" fill="#5f5f5f"/>
<rect x="408" y="168" width="8" height="8" fill="#5f5f5f"/>
<rect x="416" y="168" width="8" height="8" fill="#005faf"/>
<rect x="424" y="168" width="8" height="8" fill="#5f5f5f"/>
<rect x="432" y="168" width="8" height="8" fill="#5f5f5f"/>
<rect x="112" y="176" width="8" height="8" fill="#5f5f5f"/>
<rect x="120" y="176" width="8" height="8" fill="#005fff"/>
<rect x="128" y="176" width="8" height="8" fill="#00d7ff"/>
<rect x="136" y="176" width="8" height="8" fill="#00d7ff"/>
<rect x="144" y="176" width="8" height="8" fill="#00d7ff"/>
<rect x="152" y="176" width="8" height="8" fill="#00d7ff"/>
<rect x="160" y="176" width="8" height="8" fill="#00d7ff"/>
<rect x="168" y="176" width="8" height="8" fill="#00d7ff"/>
<rect x="176" y="176" width="8" height="8" fill="#00d7ff"/>
<rect x="184" y="176" width="8" height="8" fill="#00d7ff"/>
<rect x="192" y="176" width="8" height="8" fill="#00d7ff"/>
<rect x="200" y="176" width="8" height="8" fill="#00d7ff"/>
<rect x="208" y="176" width="8" height="8" fill="#00d7ff"/>
<rect x="216" y="176" width="8" height="8" fill="#00d7ff"/>
<rect x="224" y="176" width="8" height="8" fill="#00d7ff"/>
<rect x="232" y="176" width="8" height="8" fill="#00d7ff"/>
<rect x="240" y="176" width="8" height="8" fill="#00d7ff"/>
<rect x="248" y="176" width="8" height="8" fill="#00d7ff"/>
<rect x="256" y="176" width="8" height="8" fill="#5f5f5f"/>
<rect x="264" y="176" width="8" height="8" fill="#5f5f87"/>
<rect x="272" y="176" width="8" height="8" fill="#5f5f87"/>
<rect x="280" y="176" width="8" height="8" fill="#5f5f87"/>
<rect x="288" y="176" width="8" height="8" fill="#5f5f87"/>
<rect x="296" y="176" width="8" height="8" fill="#5f5f87"/>
<rect x="304" y="176" width="8" height="8" fill="#005faf"/>
<rect x="312" y="176" width="8" height="8" fill="#005faf"/>
<rect x="320" y="176" width="8" height="8" fill="#5f5f5f"/>
<rect x="328" y="176" width="8" height="8" fill="#5f5f5f"/>
<rect x="336" y="176" width="8" height="8" fill="#5f5f5f"/>
<rect x="344" y="176" width="8" height="8" fill="#5f5f5f"/>
<rect x="352" y="176" width="8" height="8" fill="#5f5f5f"/>
<rect x="360" y="176" width="8" height="8" fill="#5f5f5f"/>
<rect x="368" y="176" width="8" height="8" fill="#5f5f5f"/>
<rect x="376" y="176" width="8" height="8" fill="#5f5f5f"/>
<rect x="384" y="176" width="8" height="8" fill="#00d7ff"/>
<rect x="392" y="176" width="8" height="8" fill="#00d7ff"/>
<rect x="400" y="176" width="8" height="8" fill="#005fff"/>
<rect x="408" y="176" width="8" height="8" fill="#005fff"/>
<rect x="416" y="176" width="8" height="8" fill="#5f5f5f"/>
<rect x="112" y="184" width="8" height="8" fill="#5f5f5f"/>
<rect x="120" y="184" width="8" height="8" fill="#005fff"/>
<rect x="128" y="184" width="8" height="8" fill="#00d7ff"/>
<rect x="136" y="184" width="8" height="8" fill="#00d7ff"/>
<rect x="144" y="184" width="8" height="8" fill="#00d7ff"/>
<rect x="152" y="184" width="8" height="8" fill="#00d7ff"/>
<rect x="160" y="184" width="8" height="8" fill="#00d7ff"/>
<rect x="168" y="184" width="8" height="8" fill="#00d7ff"/>
<rect x="176" y="184" width="8" height="8" fill="#00d7ff"/>
<rect x="184" y="184" width="8" height="8" fill="#00d7ff"/>
<rect x="192" y="184" width="8" height="8" fill="#00d7ff"/>
<rect x="200" y="184" width="8" height="8" fill="#00d7ff"/>
<rect x="208" y="184" width="8" height="8" fill="#00d7ff"/>
<rect x="216" y="184" width="8" height="8" fill="#00d7ff"/>
<rect x="224" y="184" width="8" height="8" fill="#00d7ff"/>
<rect x="232" y="184" width="8" height="8" fill="#00d7ff"/>
<rect x="240" y="184" width="8" height="8" fill="#00d7ff"/>
<rect x="248" y="184" width="8" height="8" fill="#00d7ff"/>
<rect x="256" y="184" width="8" height="8" fill="#5f5f5f"/>
<rect x="264" y="184" width="8" height="8" fill="#5f5f87"/>
<rect x="272" y="184" width="8" height="8" fill="#5f5f87"/>
<rect x="280" y="184" width="8" height="8" fill="#5f5f87"/>
<rect x="288" y="184" width="8" height="8" fill="#5f5f87"/>
<rect x="296" y="184" width="8" height="8" fill="#5f5f87"/>
<rect x="304" y="184" width="8" height="8" fill="#005faf"/>
<rect x="312" y="184" width="8" height="8" fill="#005faf"/>
<rect x="320" y="184" width="8" height="8" fill="#5f5f5f"/>
<rect x="328" y="184" width="8" height="8" fill="#5f5f5f"/>
<rect x="336" y="184" width="8" height="8" fill="#5f5f5f"/>
<rect x="344" y="184" width="8" height="8" fill="#5f5f5f"/>
<rect x="352" y="184" width="8" height="8" fill="#5f5f5f"/>
<rect x="360" y="184" width="8" height="8" fill="#5f5f5f"/>
<rect x="368" y="184" width="8" height="8" fill="#5f5f5f"/>
<rect x="376" y="184" width="8" height="8" fill="#5f5f5f"/>
<rect x="384" y="184" width="8" height="8" fill="#00d7ff"/>
<rect x="392" y="184" width="8" height="8" fill="#00d7ff"/>
<rect x="400" y="184" width="8" height="8" fill="#005fff"/>
<rect x="408" y="184" width="8" height="8" fill="#005fff"/>
<rect x="416" y="184" width="8" height="8" fill="#5f5f5f"/>
<rect x="120" y="192" width="8" height="8" fill="#5f5f5f"/>
<rect x="128" y="192" width="8" height="8" fill="#005fff"/>
<rect x="136" y="192" width="8" height="8" fill="#005fff"/>
<rect x="144" y="192" width="8" height="8" fill="#00d7ff"/>
<rect x="152" y="192" width="8" height="8" fill="#00d7ff"/>
<rect x="160" y="192" width="8" height="8" fill="#00d7ff"/>
<rect x="168" y="192" width="8" height="8" fill="#00d7ff"/>
<rect x="176" y="192" width="8" height="8" fill="#00d7ff"/>
<rect x="184" y="192" width="8" height="8" fill="#00d7ff"/>
<rect x="192" y="192" width="8" height="8" fill="#00d7ff"/>
<rect x="200" y="192" width="8" height="8" fill="#00d7ff"/>
<rect x="208" y="192" width="8" height="8" fill="#00d7ff"/>
<rect x="216" y="192" width="8" height="8" fill="#00d7ff"/>
<rect x="224" y="192" width="8" height="8" fill="#00d7ff"/>
<rect x="232" y="192" width="8" height="8" fill="#00d7ff"/>
<rect x="240" y="192" width="8" height="8" fill="#00d7ff"/>
<rect x="248" y="192" width="8" height="8" fill="#00d7ff"/>
<rect x="256" y="192" width="8" height="8" fill="#005fff"/>
<rect x="264" y="192" width="8" height="8" fill="#5f5f5f"/>
<rect x="272" y="192" width="8" height="8" fill="#5f5f5f"/>
<rect x="280" y="192" width="8" height="8" fill="#5f5f87"/>
<rect x="288" y="192" width="8" height="8" fill="#5f5f87"/>
<rect x="296" y="192" width="8" height="8" fill="#5f5f87"/>
<rect x="304" y="192" width="8" height="8" fill="#5f5f87"/>
<rect x="312" y="192" width="8" height="8" fill="#5f5f87"/>
<rect x="320" y="192" width="8" height="8" fill="#005faf"/>
<rect x="328" y="192" width="8" height="8" fill="#5f5f5f"/>
<rect x="336" y="192" width="8" height="8" fill="#5f5f5f"/>
<rect x="344" y="192" width="8" height="8" fill="#00d7ff"/>
<rect x="352" y="192" width="8" height="8" fill="#00d7ff"/>
<rect x="360" y="192" width="8" height="8" fill="#00d7ff"/>
<rect x="368" y="192" width="8" height="8" fill="#00d7ff"/>
<rect x="376" y="192" width="8" height="8" fill="#00d7ff"/>
<rect x="384" y="192" width="8" height="8" fill="#005fff"/>
<rect x="392" y="192" width="8" height="8" fill="#005fff"/>
<rect x="400" y="192" width="8" height="8" fill="#5f5f5f"/>
<rect x="408" y="192" width="8" height="8" fill="#5f5f5f"/>
<rect x="144" y="200" width="8" height="8" fill="#5f5f5f"/>
<rect x="152" y="200" width="8" height="8" fill="#5f5f5f"/>
<rect x="160" y="200" width="8" height="8" fill="#5f5f5f"/>
<rect x="168" y="200" width="8" height="8" fill="#005fff"/>
<rect x="176" y="200" width="8" height="8" fill="#005faf"/>
<rect x="184" y="200" width="8" height="8" fill="#005fff"/>
<rect x="192" y="200" width="8" height="8" fill="#00d7ff"/>
<rect x="200" y="200" width="8" height="8" fill="#00d7ff"/>
<rect x="208" y="200" width="8" height="8" fill="#005fff"/>
<rect x="216" y="200" width="8" height="8" fill="#005fff"/>
<rect x="224" y="200" width="8" height="8" fill="#005fff"/>
<rect x="232" y="200" width="8" height="8" fill="#005fff"/>
<rect x="240" y="200" width="8" height="8" fill="#005fff"/>
<rect x="248" y="200" width="8" height="8" fill="#005fff"/>
<rect x="256" y="200" width="8" height="8" fill="#00d7ff"/>
<rect x="264" y="200" width="8" height="8" fill="#005fff"/>
<rect x="272" y="200" width="8" height="8" fill="#5f5f5f"/>
<rect x="280" y="200" width="8" height="8" fill="#5f5f5f"/>
<rect x="288" y="200" width="8" height="8" fill="#5f5f5f"/>
<rect x="296" y="200" width="8" height="8" fill="#5f5f5f"/>
<rect x="304" y="200" width="8" height="8" fill="#5f5f87"/>
<rect x="312" y="200" width="8" height="8" fill="#5f5f87"/>
<rect x="320" y="200" width="8" height="8" fill="#5f5f87"/>
<rect x="328" y="200" width="8" height="8" fill="#5f5f87"/>
<rect x="336" y="200" width="8" height="8" fill="#5f5f5f"/>
<rect x="344" y="200" width="8" height="8" fill="#5f5f5f"/>
<rect x="352" y="200" width="8" height="8" fill="#005fff"/>
<rect x="360" y="200" width="8" height="8" fill="#5f5f5f"/>
<rect x="368" y="200" width="8" height="8" fill="#5f5f5f"/>
<rect x="376" y="200" width="8" height="8" fill="#5f5f5f"/>
<rect x="168" y="208" width="8" height="8" fill="#5f5f5f"/>
<rect x="176" y="208" width="8" height="8" fill="#5f5f5f"/>
<rect x="184" y="208" width="8" height="8" fill="#005faf"/>
<rect x="192" y="208" width="8" height="8" fill="#005faf"/>
<rect x="200" y="208" width="8" height="8" fill="#005faf"/>
<rect x="208" y="208" width="8" height="8" fill="#005faf"/>
<rect x="216" y="208" width="8" height="8" fill="#005fff"/>
<rect x="224" y="208" width="8" height="8" fill="#005fff"/>
<rect x="232" y="208" width="8" height="8" fill="#005fff"/>
<rect x="240" y="208" width="8" height="8" fill="#005fff"/>
<rect x="248" y="208" width="8" height="8" fill="#005fff"/>
<rect x="256" y="208" width="8" height="8" fill="#005fff"/>
<rect x="264" y="208" width="8" height="8" fill="#005faf"/>
<rect x="272" y="208" width="8" height="8" fill="#005faf"/>
<rect x="280" y="208" width="8" height="8" fill="#005faf"/>
<rect x="288" y="208" width="8" height="8" fill="#5f5f5f"/>
<rect x="296" y="208" width="8" height="8" fill="#5f5f5f"/>
<rect x="304" y="208" width="8" height="8" fill="#5f5f5f"/>
<rect x="312" y="208" width="8" height="8" fill="#5f5f5f"/>
<rect x="320" y="208" width="8" height="8" fill="#5f5f5f"/>
<rect x="328" y="208" width="8" height="8" fill="#5f5f5f"/>
<rect x="336" y="208" width="8" height="8" fill="#5f5f5f"/>
<rect x="344" y="208" width="8" height="8" fill="#5f5f5f"/>
<rect x="352" y="208" width="8" height="8" fill="#5f5f5f"/>
<rect x="296" y="216" width="8" height="8" fill="#5f5f5f"/>
<rect x="304" y="216" width="8" height="8" fill="#5f5f5f"/>
<rect x="320" y="216" width="8" height="8" fill="#5f5f5f"/>
<rect x="328" y="216" width="8" height="8" fill="#5f5f5f"/>
<rect x="296" y="224" width="8" height="8" fill="#5f5f5f"/>
<rect x="304" y="224" width="8" height="8" fill="#5f5f5f"/>
<rect x="320" y="224" width="8" height="8" fill="#5f5f5f"/>
<rect x="328" y="224" width="8" height="8" fill="#5f5f5f"/>
<rect x="0" y="232" width="8" height="8" fill="#5f5f87"/>
<rect x="8" y="232" width="8" height="8" fill="#00d7ff"/>
<rect x="16" y="232" width="8" height="8" fill="#5f5f5f"/>
<rect x="24" y="232" width="8" height="8" fill="#00d7ff"/>
<rect x="32" y="232" width="8" height="8" fill="#5f5f5f"/>

</svg>